<svg id="Layer_1" enable-background="new 0 0 512 512" height="512" viewBox="0 0 512 512" width="512" xmlns="http://www.w3.org/2000/svg"><g><path d="m428.29 246.93c3.71-14.81-4.95-30.02-19.73-34.28-14.83-4.29-30.32 4.04-35.02 18.64-.03.09-.06.18-.09.27 4-14.94-4.69-30.4-19.62-34.72-14.99-4.33-30.66 4.22-35.17 19.12l-.03.11-.07.23c4.37-15.11-4.34-30.9-19.46-35.27-15.07-4.35-30.82 4.31-35.23 19.35.03-.13.1-.37.2-.71 3.81-14.86-4.85-30.16-19.69-34.45-15.12-4.36-30.91 4.35-35.27 19.46 4.98-17.26 13.69-32.43 25-44.89 28.3-31.19 72.88-45.42 116.07-32.94.41.12.81.24 1.21.37 14.25 4.28 27.05 11.11 38.04 19.85 34.83 27.67 51.55 74.45 38.86 119.86z" fill="#40d7ff"/><path d="m428.29 246.93c3.71-14.81-4.95-30.02-19.73-34.28-14.83-4.29-30.32 4.04-35.02 18.64-.03.09-.06.18-.09.27 4-14.94-4.69-30.4-19.62-34.72-14.99-4.33-30.66 4.22-35.17 19.12l-.03.11-.07.23c4.37-15.11-4.34-30.9-19.46-35.27-15.07-4.35-30.82 4.31-35.23 19.35.03-.13.1-.37.2-.71 3.81-14.86-4.85-30.16-19.69-34.45-15.12-4.36-30.91 4.35-35.27 19.46 4.98-17.26 13.69-32.43 25-44.89 54.27 20.5 148.3 54.12 167.11 48.49 11.55-3.46 2.64-30.59-11.79-61.21 34.83 27.67 51.55 74.45 38.86 119.86z" fill="#2aa6f2"/><path d="m382.24 187.45c-2.35 22.03-7.76 40.71-8.79 44.11 4-14.94-4.69-30.4-19.62-34.72-15.03-4.34-30.74 4.26-35.2 19.23l12.21-42.27 19.34-66.95c.41.12.81.24 1.21.37 31.34 9.99 34.26 48.57 30.85 80.23z" fill="#ffff4d"/><path d="m373.45 231.56c4-14.94-4.69-30.4-19.62-34.72-15.03-4.34-30.74 4.26-35.2 19.23l12.21-42.27c19.84 6.24 38.04 11.28 51.4 13.65-2.35 22.03-7.76 40.71-8.79 44.11z" fill="#ffe150"/><path d="m350.18 106.85-19.34 66.95-12.18 42.16-.03.11-.07.23c4.37-15.11-4.34-30.9-19.46-35.27-15.07-4.35-30.82 4.31-35.23 19.35.03-.13.1-.37.2-.71 1.15-4.11 6.68-23 16.53-42.81 14.24-28.66 37.51-59.28 69.58-50.01z" fill="#53f46e"/><path d="m330.84 173.8-12.18 42.16-.03.11-.07.23c4.37-15.11-4.34-30.9-19.46-35.27-15.07-4.35-30.82 4.31-35.23 19.35.03-.13.1-.37.2-.71 1.15-4.11 6.68-23 16.53-42.81 16.66 5.91 34 11.83 50.24 16.94z" fill="#33e279"/><path d="m428.29 246.93c3.71-14.81-4.95-30.02-19.73-34.28-14.83-4.29-30.32 4.04-35.02 18.64 1.2-4.02 6.41-22.34 8.71-43.84 3.4-31.67.48-70.24-30.86-80.23 14.25 4.28 27.05 11.11 38.04 19.85 34.83 27.67 51.55 74.45 38.86 119.86z" fill="#ff7680"/><path d="m428.29 246.93c3.71-14.81-4.95-30.02-19.73-34.28-14.83-4.29-30.32 4.04-35.02 18.64 1.2-4.02 6.41-22.34 8.71-43.84 8.65 1.53 15.27 1.94 18.97.83 11.55-3.46 2.64-30.59-11.79-61.21 34.83 27.67 51.55 74.45 38.86 119.86z" fill="#f44d90"/><path d="m207.4 303.24c-9.96 9.95-24.52 12.5-36.84 7.64-4.23-1.66-8.2-4.21-11.63-7.64-13.39-13.39-13.39-35.09 0-48.47 3.13-3.13 6.72-5.53 10.55-7.19 12.53-5.47 27.66-3.07 37.92 7.19 13.38 13.38 13.38 35.08 0 48.47z" fill="#ff7680"/><path d="m207.4 303.24c-9.96 9.95-24.52 12.5-36.84 7.64 11.75-5.57 19.88-17.53 19.88-31.4 0-14.29-8.63-26.56-20.96-31.9 12.53-5.47 27.66-3.07 37.92 7.19 13.38 13.38 13.38 35.08 0 48.47z" fill="#f44d90"/><path d="m207.4 303.24c-9.96 9.95-24.52 12.5-36.84 7.64-4.23-1.66-8.2-4.21-11.63-7.64l30.79-30.79 17.68-17.68c13.38 13.38 13.38 35.08 0 48.47z" fill="#40d7ff"/><path d="m207.4 303.24c-9.96 9.95-24.52 12.5-36.84 7.64 11.75-5.57 19.88-17.53 19.88-31.4 0-2.41-.25-4.76-.72-7.03l17.68-17.68c13.38 13.38 13.38 35.08 0 48.47z" fill="#2aa6f2"/><path d="m504.5 313.28v39.86c-15.1 0-19.19 10.66-28.33 16.43-3.39 2.14-7.48 3.61-13.09 3.61-20.71 0-20.71-20.04-41.43-20.04-20.7 0-20.7 20.04-41.41 20.04s-20.71-20.04-41.42-20.04-20.71 20.04-41.42 20.04-20.71-20.04-41.41-20.04c-20.71 0-20.71 20.04-41.41 20.04-20.71 0-20.71-20.04-41.42-20.04s-20.71 20.04-41.42 20.04-20.71-20.04-41.41-20.04c-20.71 0-20.71 20.04-41.42 20.04-20.7 0-20.7-20.04-41.41-20.04v-39.86c41.42 0 41.42 10 82.83 10 41.42 0 41.42-10 82.83-10 41.42 0 41.42 10 82.83 10 41.42 0 41.42-10 82.84-10 41.41 0 41.41 10 82.83 10 28.99 0 37.69-4.9 54.51-7.84 7.21-1.26 15.9-2.16 28.33-2.16z" fill="#ffff4d"/><path d="m504.5 313.28v39.86c-15.1 0-19.19 10.66-28.33 16.43v-54.13c7.21-1.26 15.9-2.16 28.33-2.16z" fill="#ffe150"/><g><path d="m504.5 353.2v151.3h-497v-151.3c20.71 0 20.71 20.04 41.41 20.04 20.71 0 20.71-20.04 41.42-20.04 20.7 0 20.7 20.04 41.41 20.04s20.71-20.04 41.42-20.04 20.71 20.04 41.42 20.04c20.7 0 20.7-20.04 41.41-20.04 20.7 0 20.7 20.04 41.41 20.04s20.71-20.04 41.42-20.04 20.71 20.04 41.42 20.04 20.71-20.04 41.41-20.04c20.72 0 20.72 20.04 41.43 20.04 5.61 0 9.7-1.47 13.09-3.61 9.14-5.77 13.23-16.43 28.33-16.43z" fill="#40d7ff"/><path d="m504.5 353.2v151.3h-497v-28.75h453.62c8.31 0 15.05-6.74 15.05-15.05v-91.07c9.14-5.77 13.23-16.43 28.33-16.43z" fill="#2aa6f2"/></g><g><path d="m152.693 79.023c0 13.1-10.61 23.71-23.7 23.71-1.43 0-2.83-.13-4.19-.37-11.08-1.98-19.5-11.67-19.5-23.34 0-11.65 8.41-21.35 19.49-23.33 1.36-.25 2.77-.38 4.2-.38 13.09 0 23.7 10.62 23.7 23.71z" fill="#ffff4d"/><path d="m152.693 79.023c0 13.1-10.61 23.71-23.7 23.71-1.43 0-2.83-.13-4.19-.37 4.54-6.64 7.19-14.68 7.19-23.34s-2.65-16.69-7.2-23.33c1.36-.25 2.77-.38 4.2-.38 13.09 0 23.7 10.62 23.7 23.71z" fill="#ffe150"/></g></g><g><path d="m104.085 425.786c4.142 0 7.5-3.358 7.5-7.5s-3.358-7.5-7.5-7.5h-47.795c-4.142 0-7.5 3.358-7.5 7.5s3.358 7.5 7.5 7.5z"/><path d="m152.085 425.786c4.142 0 7.5-3.358 7.5-7.5s-3.358-7.5-7.5-7.5h-17.795c-4.142 0-7.5 3.358-7.5 7.5s3.358 7.5 7.5 7.5z"/><path d="m231.29 450.875c-4.142 0-7.5 3.358-7.5 7.5s3.358 7.5 7.5 7.5h20.795c4.142 0 7.5-3.358 7.5-7.5s-3.358-7.5-7.5-7.5z"/><path d="m118.79 458.375c0 4.142 3.358 7.5 7.5 7.5h74.795c4.142 0 7.5-3.358 7.5-7.5s-3.358-7.5-7.5-7.5h-74.795c-4.142 0-7.5 3.358-7.5 7.5z"/><path d="m386.88 410.786h-67.795c-4.143 0-7.5 3.358-7.5 7.5s3.357 7.5 7.5 7.5h67.795c4.143 0 7.5-3.358 7.5-7.5s-3.358-7.5-7.5-7.5z"/><path d="m288.88 425.786c4.143 0 7.5-3.358 7.5-7.5s-3.357-7.5-7.5-7.5h-27.795c-4.142 0-7.5 3.358-7.5 7.5s3.358 7.5 7.5 7.5z"/><path d="m335.051 458.375c0 4.142 3.357 7.5 7.5 7.5h104.154c4.143 0 7.5-3.358 7.5-7.5s-3.357-7.5-7.5-7.5h-104.154c-4.143 0-7.5 3.358-7.5 7.5z"/><path d="m504.5 497h-91.412c-4.143 0-7.5 3.358-7.5 7.5s3.357 7.5 7.5 7.5h91.412c4.143 0 7.5-3.358 7.5-7.5s-3.357-7.5-7.5-7.5z"/><path d="m504.5 345.639c-13.392 0-20.343 6.728-25.928 12.134-4.746 4.593-8.175 7.912-15.495 7.912-7.321 0-10.75-3.319-15.496-7.912-5.585-5.406-12.536-12.133-25.927-12.133-13.39 0-20.341 6.728-25.926 12.134-4.744 4.593-8.173 7.911-15.491 7.911-7.319 0-10.747-3.318-15.493-7.912-5.585-5.406-12.535-12.134-25.926-12.134-13.39 0-20.34 6.728-25.925 12.134-4.744 4.593-8.173 7.912-15.491 7.912s-10.747-3.318-15.491-7.912c-5.585-5.406-12.535-12.134-25.925-12.134-13.389 0-20.338 6.728-25.922 12.134-4.744 4.593-8.172 7.911-15.489 7.911-7.318 0-10.747-3.318-15.491-7.911-5.584-5.406-12.535-12.134-25.924-12.134s-20.34 6.728-25.925 12.134c-4.745 4.593-8.173 7.912-15.492 7.912s-10.747-3.318-15.492-7.912c-5.584-5.406-12.535-12.134-25.924-12.134s-20.339 6.728-25.923 12.134c-4.745 4.593-8.173 7.911-15.491 7.911s-10.746-3.318-15.49-7.911c-5.584-5.406-12.534-12.134-25.923-12.134-4.142 0-7.5 3.358-7.5 7.5s3.358 7.5 7.5 7.5c7.318 0 10.746 3.318 15.49 7.911 5.584 5.406 12.534 12.134 25.923 12.134s20.339-6.728 25.923-12.134c4.745-4.593 8.173-7.912 15.491-7.912s10.747 3.318 15.492 7.912c5.584 5.406 12.535 12.134 25.924 12.134s20.34-6.728 25.924-12.134c4.745-4.593 8.173-7.912 15.492-7.912s10.747 3.318 15.492 7.912c5.584 5.406 12.535 12.134 25.924 12.134s20.338-6.728 25.922-12.134c4.744-4.593 8.172-7.911 15.489-7.911 7.318 0 10.747 3.318 15.491 7.912 5.585 5.406 12.535 12.134 25.925 12.134s20.34-6.728 25.925-12.134c4.744-4.593 8.173-7.912 15.491-7.912 7.319 0 10.748 3.319 15.494 7.912 5.585 5.406 12.535 12.133 25.925 12.133s20.34-6.728 25.924-12.134c4.745-4.593 8.174-7.912 15.493-7.912 7.32 0 10.749 3.319 15.495 7.912 5.585 5.406 12.536 12.134 25.928 12.134 13.391 0 20.342-6.728 25.927-12.133 4.746-4.593 8.175-7.912 15.496-7.912 4.143 0 7.5-3.358 7.5-7.5s-3.357-7.5-7.5-7.5z"/><path d="m378.231 497h-370.731c-4.142 0-7.5 3.358-7.5 7.5s3.358 7.5 7.5 7.5h370.731c4.143 0 7.5-3.358 7.5-7.5s-3.357-7.5-7.5-7.5z"/><path d="m7.5 320.775c19.815 0 29.452 2.327 39.655 4.791 10.607 2.561 21.575 5.209 43.176 5.209s32.569-2.648 43.176-5.209c10.203-2.463 19.84-4.791 39.656-4.791 19.815 0 29.452 2.327 39.655 4.791 10.607 2.561 21.575 5.209 43.175 5.209 21.602 0 32.57-2.648 43.178-5.209 10.203-2.463 19.84-4.791 39.655-4.791 19.817 0 29.455 2.327 39.659 4.791 10.607 2.561 21.576 5.209 43.178 5.209 21.603 0 32.571-2.648 43.18-5.209 10.203-2.463 19.841-4.791 39.657-4.791 4.143 0 7.5-3.358 7.5-7.5s-3.357-7.5-7.5-7.5c-21.602 0-32.57 2.648-43.178 5.209-10.204 2.463-19.842 4.791-39.659 4.791-19.816 0-29.454-2.327-39.657-4.791-10.608-2.561-21.577-5.209-43.18-5.209-19.163 0-29.958 2.084-39.556 4.343l26.531-91.851c3.259-11.045 14.871-17.421 25.948-14.221 5.384 1.555 9.841 5.114 12.548 10.021 2.708 4.907 3.342 10.575 1.787 15.959-1.13 3.906 1.064 8.018 4.964 9.239.746.234 1.501.345 2.243.345 3.192 0 6.151-2.054 7.155-5.261.043-.136.13-.417.255-.832 3.479-10.7 14.881-16.811 25.775-13.663 11.101 3.207 17.53 14.839 14.346 25.943-.004.013-.007.026-.011.038-1.149 3.979 1.145 8.137 5.124 9.287.695.201 1.396.296 2.085.296 3.255 0 6.253-2.137 7.201-5.42 9.002-31.161 5.329-63.962-10.341-92.361-14.456-26.199-37.526-45.757-65.479-55.698l3.117-10.79c1.149-3.979-1.145-8.137-5.124-9.287-3.977-1.147-8.137 1.145-9.286 5.125l-3.116 10.79c-28.95-6.497-58.895-2.25-85.094 12.205-28.399 15.67-48.996 41.461-57.997 72.622-1.149 3.979 1.145 8.137 5.125 9.287 3.979 1.147 8.137-1.146 9.287-5.125 1.555-5.384 5.114-9.841 10.021-12.549s10.576-3.342 15.959-1.787c10.89 3.145 17.283 14.396 14.519 25.304-.115.417-.191.7-.228.838-1.061 4.004 1.325 8.11 5.329 9.171.644.17 1.29.252 1.926.252 3.277 0 6.277-2.165 7.21-5.454 3.224-11.095 14.867-17.51 25.972-14.303 5.384 1.555 9.841 5.114 12.548 10.021 2.708 4.907 3.343 10.575 1.787 15.959h.001l-28.765 99.585c-6.801 1.165-14.938 1.972-26.6 1.972-19.815 0-29.452-2.327-39.655-4.791-1.632-.394-3.273-.79-4.96-1.179.448-.411.89-.833 1.323-1.266 16.287-16.287 16.287-42.789 0-59.076s-42.789-16.286-59.076 0c-15.731 15.731-16.267 40.99-1.612 57.371-9.009 1.007-15.584 2.594-22.026 4.15-10.203 2.463-19.84 4.791-39.655 4.791s-29.452-2.327-39.655-4.791c-10.607-2.561-21.575-5.209-43.176-5.209-4.142 0-7.5 3.358-7.5 7.5s3.358 7.5 7.5 7.5zm348.412-131.14c-7.516-2.17-15.177-1.769-22.037.681l21.211-73.431c5.615 3.045 10.021 7.614 13.363 13.825 7.261 13.501 9.229 34.734 5.69 61.403-.376 2.836-.798 5.596-1.245 8.25-4.478-5.085-10.315-8.802-16.982-10.728zm55.836-24.752c8.376 15.181 12.841 31.797 13.261 48.647-3.973-3.666-8.832-6.488-14.369-8.087-8.094-2.338-16.356-1.693-23.606 1.283 3.837-20.969 6.577-49.953-.976-72.79 10.325 8.464 19.046 18.906 25.69 30.947zm-165.291-6.864c-5.419-1.565-11.004-1.836-16.395-.856 17.189-25.69 44.852-42.605 75.237-46.463-18.516 15.295-31.622 41.214-39.547 60.967-4.687-6.587-11.411-11.37-19.295-13.648zm54.728 15.808c-6.816-1.968-13.751-1.822-20.099.049 1.011-2.421 2.097-4.916 3.258-7.452 11.246-24.559 24.262-41.545 37.642-49.123 6.142-3.479 12.31-4.998 18.69-4.579l-21.203 73.405c-4.621-5.893-10.952-10.181-18.288-12.3zm-94.544 92.303c5.567 10.165 4.051 23.205-4.547 31.804-5.057 5.057-11.78 7.842-18.932 7.842-4.577 0-8.978-1.141-12.879-3.288zm-42.41-6.06c5.22-5.22 12.075-7.829 18.932-7.829 4.438 0 8.877 1.095 12.872 3.282l-36.351 36.351c-5.567-10.165-4.051-23.205 4.547-31.804z"/><path d="m128.994 110.231c17.203 0 31.199-14 31.199-31.208s-13.996-31.208-31.199-31.208-31.199 14-31.199 31.208 13.996 31.208 31.199 31.208zm0-47.417c8.932 0 16.199 7.271 16.199 16.208s-7.267 16.208-16.199 16.208-16.199-7.271-16.199-16.208 7.267-16.208 16.199-16.208z"/><path d="m121.494 132.743v17.803c0 4.142 3.358 7.5 7.5 7.5s7.5-3.358 7.5-7.5v-17.803c0-4.142-3.358-7.5-7.5-7.5s-7.5 3.358-7.5 7.5z"/><path d="m128.994 32.802c4.142 0 7.5-3.358 7.5-7.5v-17.802c0-4.142-3.358-7.5-7.5-7.5s-7.5 3.358-7.5 7.5v17.802c0 4.142 3.358 7.5 7.5 7.5z"/><path d="m57.5 86.523h17.795c4.142 0 7.5-3.358 7.5-7.5s-3.358-7.5-7.5-7.5h-17.795c-4.142 0-7.5 3.358-7.5 7.5s3.358 7.5 7.5 7.5z"/><path d="m175.193 79.023c0 4.142 3.358 7.5 7.5 7.5h17.795c4.142 0 7.5-3.358 7.5-7.5s-3.358-7.5-7.5-7.5h-17.795c-4.142 0-7.5 3.358-7.5 7.5z"/><path d="m85.719 111.707-12.583 12.588c-2.929 2.93-2.928 7.678.002 10.606 1.464 1.464 3.383 2.196 5.302 2.196 1.92 0 3.84-.732 5.304-2.198l12.583-12.588c2.929-2.93 2.928-7.678-.002-10.606-2.929-2.929-7.678-2.929-10.606.002z"/><path d="m166.965 48.537c1.92 0 3.84-.732 5.304-2.198l12.583-12.588c2.929-2.93 2.928-7.678-.002-10.606-2.93-2.929-7.679-2.928-10.606.002l-12.583 12.588c-2.929 2.93-2.928 7.678.002 10.606 1.464 1.464 3.383 2.196 5.302 2.196z"/><path d="m85.719 46.339c1.464 1.465 3.384 2.198 5.304 2.198 1.919 0 3.838-.732 5.302-2.196 2.93-2.928 2.93-7.677.002-10.606l-12.583-12.589c-2.928-2.93-7.677-2.931-10.606-.002-2.93 2.928-2.93 7.677-.002 10.606z"/><path d="m161.663 111.705c-2.93 2.928-2.931 7.677-.002 10.606l12.583 12.588c1.464 1.465 3.384 2.198 5.304 2.198 1.919 0 3.838-.732 5.302-2.196 2.93-2.928 2.931-7.677.002-10.606l-12.583-12.588c-2.928-2.931-7.677-2.931-10.606-.002z"/></g></svg>