<?xml version="1.0" encoding="iso-8859-1"?>
<!-- Generator: Adobe Illustrator 19.0.0, SVG Export Plug-In . SVG Version: 6.00 Build 0)  -->
<svg version="1.1" id="Capa_1" xmlns="http://www.w3.org/2000/svg" xmlns:xlink="http://www.w3.org/1999/xlink" x="0px" y="0px"
	 viewBox="0 0 480 480" style="enable-background:new 0 0 480 480;" xml:space="preserve">
<path style="fill:#FCF05A;" d="M200,280h64v48h-64V280z"/>
<g>
	<path style="fill:#7FCAC9;" d="M112,304H16c0-16.569,13.431-30,30-30l0,0c0-9.941,8.059-18,18-18s18,8.059,18,18
		C98.569,274,112,287.431,112,304L112,304z"/>
	<path style="fill:#7FCAC9;" d="M464,360h-96c0-16.569,13.431-30,30-30l0,0c0-9.941,8.059-18,18-18s18,8.059,18,18
		C450.569,330,464,343.431,464,360L464,360z"/>
</g>
<path style="fill:#FDBD40;" d="M144,360h176v32H144V360z"/>
<path style="fill:#FCF05A;" d="M288,472H176l-16-80h144L288,472z"/>
<ellipse style="fill:#E9686A;" cx="232" cy="152" rx="136" ry="144"/>
<ellipse style="fill:#FDBD40;" cx="232" cy="152" rx="52.888" ry="144"/>
<g>
	<path style="fill:#7FCAC9;" d="M160,368c-4.075-0.004-7.496-3.07-7.944-7.12l-16-144c-0.486-4.392,2.68-8.346,7.072-8.832
		s8.346,2.68,8.832,7.072l0,0l16,144c0.467,4.38-2.694,8.314-7.072,8.8C160.594,367.963,160.297,367.989,160,368L160,368z"/>
	<path style="fill:#7FCAC9;" d="M304,368c-0.297,0-0.593-0.016-0.888-0.048c-4.378-0.486-7.539-4.42-7.072-8.8l16-144
		c0.486-4.392,4.44-7.558,8.832-7.072c4.392,0.486,7.558,4.44,7.072,8.832l-16,144C311.481,364.949,308.064,367.998,304,368z"/>
</g>
<g>
	<path style="fill:#E9686A;" d="M320,392l16,48l32-24L320,392z"/>
	<path style="fill:#E9686A;" d="M144,392l-16,48l-32-24L144,392z"/>
</g>
<path d="M16,312h96c4.418,0,8-3.582,8-8c-0.023-18.305-13.071-34.002-31.064-37.368c-4.066-13.772-18.526-21.64-32.298-17.574
	c-8.46,2.498-15.077,9.114-17.574,17.574C21.071,269.998,8.023,285.695,8,304C8,308.418,11.582,312,16,312z M46,282
	c4.418,0,8-3.582,8-8c0-5.523,4.477-10,10-10s10,4.477,10,10c0,4.418,3.582,8,8,8c9.06,0.01,17.191,5.564,20.496,14H25.504
	C28.809,287.564,36.94,282.01,46,282z"/>
<path d="M440.936,322.632c-4.066-13.772-18.526-21.64-32.298-17.574c-8.46,2.498-15.077,9.114-17.574,17.574
	C373.071,325.998,360.023,341.695,360,360c0,4.418,3.582,8,8,8h96c4.418,0,8-3.582,8-8
	C471.977,341.695,458.929,325.998,440.936,322.632z M377.504,352c3.305-8.436,11.436-13.99,20.496-14c4.418,0,8-3.582,8-8
	c0-5.523,4.477-10,10-10s10,4.477,10,10c0,4.418,3.582,8,8,8c9.06,0.01,17.191,5.564,20.496,14H377.504z"/>
<path d="M376,152C376,68.184,311.4,0,232,0S88,68.184,88,152c-0.268,45.506,19.481,88.828,54.008,118.472L151.064,352H136v35.056
	L92.424,408.84c-3.962,1.956-5.588,6.753-3.633,10.715c0.562,1.139,1.388,2.129,2.409,2.885l32,24c1.385,1.039,3.069,1.6,4.8,1.6
	c3.445,0.001,6.503-2.204,7.592-5.472L149.768,400h3.672l16,80h125.12l16-80h3.672l14.176,42.528
	c1.396,4.192,5.925,6.459,10.117,5.064c0.817-0.272,1.586-0.675,2.275-1.192l32-24c3.549-2.632,4.293-7.642,1.661-11.191
	c-0.757-1.021-1.746-1.847-2.885-2.409L328,387.056V352h-15.064l9.056-81.528C356.519,240.828,376.268,197.506,376,152L376,152z
	 M123.92,426.944l-12.76-9.6l19.144-9.6L123.92,426.944z M352.84,417.344l-12.76,9.6l-6.4-19.152L352.84,417.344z M360,152
	c0.146,34.409-12.384,67.667-35.2,93.424l3.2-28.544c0.486-4.392-2.68-8.346-7.072-8.832c-4.392-0.486-8.346,2.68-8.832,7.072
	l-5.216,46.984c-12.852,9.934-27.53,17.248-43.2,21.528c19.2-28.072,29.272-80.944,29.272-131.632s-10.16-103.56-29.336-131.632
	C321.652,37.632,361.066,91.46,360,152L360,152z M187.112,152c0-80.152,23.656-136,44.888-136s44.888,55.848,44.888,136
	S253.232,288,232,288S187.112,232.152,187.112,152z M208,301.712c15.855,3.051,32.145,3.051,48,0V320h-48V301.712z M104,152
	c-1.066-60.54,38.348-114.368,96.384-131.632C181.208,48.44,171.112,101.312,171.112,152s10.096,103.56,29.272,131.632
	c-15.67-4.28-30.348-11.594-43.2-21.528l-5.216-46.984c-0.486-4.392-4.44-7.558-8.832-7.072s-7.558,4.44-7.072,8.832l3.2,28.544
	C116.425,219.676,103.871,186.417,104,152L104,152z M312,368v16H152v-16H312z M281.44,464h-98.88l-12.8-64h124.48L281.44,464z
	 M296.8,352H167.2l-7.656-68.888c10.14,6.304,21.048,11.278,32.456,14.8V328c0,4.418,3.582,8,8,8h64c4.418,0,8-3.582,8-8v-30.088
	c11.422-3.519,22.344-8.493,32.496-14.8L296.8,352z"/>
<g>
</g>
<g>
</g>
<g>
</g>
<g>
</g>
<g>
</g>
<g>
</g>
<g>
</g>
<g>
</g>
<g>
</g>
<g>
</g>
<g>
</g>
<g>
</g>
<g>
</g>
<g>
</g>
<g>
</g>
</svg>
